<?xml version="1.0" standalone="no"?>
<!DOCTYPE svg PUBLIC "-//W3C//DTD SVG 20010904//EN"
 "http://www.w3.org/TR/2001/REC-SVG-20010904/DTD/svg10.dtd">
<svg version="1.0" xmlns="http://www.w3.org/2000/svg"
 width="300.000000pt" height="300.000000pt" viewBox="0 0 300.000000 300.000000"
 preserveAspectRatio="xMidYMid meet">
<metadata>
Forever Viral Logo
</metadata>
<g transform="translate(0.000000,300.000000) scale(0.100000,-0.100000)"
fill="#000000" stroke="none">
<path d="M617 2169 c-243 -33 -457 -215 -533 -454 -21 -65 -25 -100 -25 -185
2 -302 153 -525 418 -617 68 -24 93 -27 198 -27 143 0 211 15 340 78 113 54
225 138 369 277 l113 108 79 -80 c153 -155 307 -274 419 -324 319 -141 669
-35 848 258 56 91 79 174 85 299 14 327 -160 576 -458 655 -100 27 -265 24
-360 -5 -163 -51 -313 -150 -504 -333 l-111 -106 -114 109 c-298 285 -510 381
-764 347z m1848 -55 c261 -66 424 -288 425 -576 0 -111 -14 -176 -56 -263 -66
-138 -153 -224 -289 -289 -95 -46 -163 -61 -270 -60 -211 2 -370 84 -605 309
-123 119 -156 145 -181 145 -11 0 -67 -47 -126 -103 -149 -144 -248 -219 -356
-272 -107 -52 -181 -73 -292 -81 -281 -21 -536 166 -600 439 -19 80 -19 246 0
317 43 161 154 301 302 378 99 51 182 72 293 72 216 0 381 -87 640 -335 88
-84 126 -115 145 -115 18 0 58 32 151 120 69 66 158 143 197 171 213 150 411
196 622 143z"/>
<path d="M656 1948 c-228 -30 -397 -259 -359 -483 41 -241 237 -391 467 -356
99 14 163 41 266 109 88 59 305 260 315 293 10 32 -28 80 -153 195 -221 202
-360 266 -536 242z m197 -57 c108 -38 208 -110 375 -273 l93 -91 -33 -35
c-128 -134 -300 -266 -404 -310 -197 -83 -420 -17 -505 149 -115 225 -16 477
220 564 56 21 188 18 254 -4z"/>
<path d="M2140 1931 c-74 -23 -161 -71 -240 -130 -93 -70 -260 -243 -260 -270
0 -27 116 -149 240 -253 164 -137 317 -195 454 -171 232 40 395 264 356 491
-28 166 -121 283 -267 333 -73 25 -206 25 -283 0z m302 -48 c65 -29 143 -105
172 -167 74 -158 52 -324 -59 -444 -126 -136 -302 -164 -481 -77 -90 44 -155
95 -296 230 l-112 109 105 99 c163 155 273 229 389 263 69 20 224 13 282 -13z"/>
</g>
</svg>
