<svg xmlns="http://www.w3.org/2000/svg" xmlns:xlink="http://www.w3.org/1999/xlink" width="200" zoomAndPan="magnify" viewBox="0 0 150 30.000001" height="40" preserveAspectRatio="xMidYMid meet" version="1.0"><defs><g/><clipPath id="addb5488c5"><path d="M 122.777344 9 L 146 9 L 146 20 L 122.777344 20 Z M 122.777344 9 " clip-rule="nonzero"/></clipPath></defs><g clip-path="url(#addb5488c5)"><path fill="#000000" d="M 122.867188 14.355469 C 122.777344 10.570312 126.980469 7.910156 130.671875 9.988281 C 131.890625 10.671875 132.921875 11.6875 134.03125 12.792969 C 134.082031 12.84375 134.105469 12.839844 134.152344 12.792969 C 135.886719 11.074219 138.402344 8.453125 141.921875 9.472656 C 143.40625 9.902344 144.433594 10.84375 144.960938 12.269531 C 146.726562 17.03125 141.664062 20.972656 137.320312 18.359375 C 136.226562 17.699219 135.277344 16.789062 134.160156 15.671875 C 134.101562 15.613281 134.074219 15.621094 134.019531 15.675781 C 132.75 16.933594 131.382812 18.300781 129.691406 18.875 C 126.257812 20.039062 122.960938 18.027344 122.867188 14.355469 Z M 125.015625 14.28125 C 125.125 16.46875 126.839844 17.488281 128.664062 17.101562 C 130.242188 16.765625 131.5625 15.402344 132.691406 14.265625 C 132.726562 14.226562 132.707031 14.210938 132.679688 14.1875 C 131.703125 13.289062 130.746094 12.195312 129.542969 11.628906 C 127.207031 10.535156 125.007812 12.140625 125.015625 14.28125 Z M 143.164062 14.1875 C 143.097656 12.074219 141.398438 10.925781 139.441406 11.375 C 137.90625 11.730469 136.589844 13.085938 135.496094 14.1875 C 135.457031 14.226562 135.472656 14.242188 135.503906 14.273438 C 136.871094 15.523438 138.484375 17.5 140.660156 17.140625 C 142.109375 16.902344 143.167969 15.660156 143.164062 14.1875 Z M 143.164062 14.1875 " fill-opacity="1" fill-rule="nonzero"/></g><g fill="#000000" fill-opacity="1"><g transform="translate(4.490776, 20.705541)"><g><path d="M 1.875 -10.65625 L 1.875 -12.921875 C 1.882812 -14.515625 2.253906 -15.789062 2.984375 -16.75 C 3.722656 -17.707031 4.742188 -18.1875 6.046875 -18.1875 C 6.597656 -18.1875 7.125 -18.101562 7.625 -17.9375 C 8.132812 -17.78125 8.503906 -17.617188 8.734375 -17.453125 L 9.078125 -17.234375 L 7.796875 -14.625 C 7.460938 -14.820312 7.09375 -14.921875 6.6875 -14.921875 C 6.226562 -14.921875 5.921875 -14.765625 5.765625 -14.453125 C 5.617188 -14.140625 5.546875 -13.597656 5.546875 -12.828125 L 5.546875 -10.65625 L 8 -10.65625 L 8 -7.859375 L 5.546875 -7.859375 L 5.546875 0 L 1.875 0 L 1.875 -7.859375 L 0.328125 -7.859375 L 0.328125 -10.65625 Z M 1.875 -10.65625 "/></g></g></g><g fill="#000000" fill-opacity="1"><g transform="translate(10.723198, 20.705541)"><g><path d="M 2.25 -1.265625 C 1.070312 -2.316406 0.484375 -3.664062 0.484375 -5.3125 C 0.484375 -6.96875 1.097656 -8.320312 2.328125 -9.375 C 3.554688 -10.4375 5.082031 -10.96875 6.90625 -10.96875 C 8.6875 -10.96875 10.191406 -10.429688 11.421875 -9.359375 C 12.648438 -8.296875 13.265625 -6.945312 13.265625 -5.3125 C 13.265625 -3.6875 12.660156 -2.34375 11.453125 -1.28125 C 10.253906 -0.21875 8.738281 0.3125 6.90625 0.3125 C 4.988281 0.3125 3.4375 -0.210938 2.25 -1.265625 Z M 5.09375 -7.125 C 4.625 -6.65625 4.390625 -6.050781 4.390625 -5.3125 C 4.390625 -4.582031 4.613281 -3.984375 5.0625 -3.515625 C 5.519531 -3.054688 6.125 -2.828125 6.875 -2.828125 C 7.59375 -2.828125 8.1875 -3.0625 8.65625 -3.53125 C 9.125 -4 9.359375 -4.59375 9.359375 -5.3125 C 9.359375 -6.050781 9.117188 -6.65625 8.640625 -7.125 C 8.160156 -7.59375 7.570312 -7.828125 6.875 -7.828125 C 6.164062 -7.828125 5.570312 -7.59375 5.09375 -7.125 Z M 5.09375 -7.125 "/></g></g></g><g fill="#000000" fill-opacity="1"><g transform="translate(22.897619, 20.705541)"><g><path d="M 1.25 0 L 1.25 -10.65625 L 4.921875 -10.65625 L 4.921875 -9.125 L 4.96875 -9.125 C 5 -9.175781 5.046875 -9.242188 5.109375 -9.328125 C 5.171875 -9.410156 5.300781 -9.554688 5.5 -9.765625 C 5.707031 -9.972656 5.929688 -10.160156 6.171875 -10.328125 C 6.410156 -10.492188 6.710938 -10.640625 7.078125 -10.765625 C 7.453125 -10.898438 7.835938 -10.96875 8.234375 -10.96875 C 8.628906 -10.96875 9.019531 -10.910156 9.40625 -10.796875 C 9.800781 -10.691406 10.085938 -10.582031 10.265625 -10.46875 L 10.5625 -10.3125 L 9.015625 -7.1875 C 8.554688 -7.570312 7.921875 -7.765625 7.109375 -7.765625 C 6.660156 -7.765625 6.273438 -7.664062 5.953125 -7.46875 C 5.640625 -7.28125 5.414062 -7.046875 5.28125 -6.765625 C 5.15625 -6.492188 5.0625 -6.257812 5 -6.0625 C 4.945312 -5.875 4.921875 -5.722656 4.921875 -5.609375 L 4.921875 0 Z M 1.25 0 "/></g></g></g><g fill="#000000" fill-opacity="1"><g transform="translate(31.685513, 20.705541)"><g><path d="M 12.03125 -4.828125 L 4.296875 -4.828125 C 4.296875 -4.078125 4.535156 -3.519531 5.015625 -3.15625 C 5.503906 -2.800781 6.035156 -2.625 6.609375 -2.625 C 7.203125 -2.625 7.671875 -2.703125 8.015625 -2.859375 C 8.367188 -3.015625 8.765625 -3.328125 9.203125 -3.796875 L 11.859375 -2.46875 C 10.753906 -0.613281 8.914062 0.3125 6.34375 0.3125 C 4.726562 0.3125 3.347656 -0.238281 2.203125 -1.34375 C 1.054688 -2.445312 0.484375 -3.769531 0.484375 -5.3125 C 0.484375 -6.863281 1.054688 -8.191406 2.203125 -9.296875 C 3.347656 -10.410156 4.726562 -10.96875 6.34375 -10.96875 C 8.03125 -10.96875 9.398438 -10.476562 10.453125 -9.5 C 11.515625 -8.53125 12.046875 -7.132812 12.046875 -5.3125 C 12.046875 -5.070312 12.039062 -4.910156 12.03125 -4.828125 Z M 4.40625 -6.859375 L 8.453125 -6.859375 C 8.367188 -7.410156 8.148438 -7.832031 7.796875 -8.125 C 7.453125 -8.425781 7 -8.578125 6.4375 -8.578125 C 5.832031 -8.578125 5.347656 -8.414062 4.984375 -8.09375 C 4.628906 -7.78125 4.4375 -7.367188 4.40625 -6.859375 Z M 4.40625 -6.859375 "/></g></g></g><g fill="#000000" fill-opacity="1"><g transform="translate(42.654913, 20.705541)"><g><path d="M 3.953125 -10.65625 L 6.546875 -4.859375 L 9.140625 -10.65625 L 13.515625 -10.65625 L 7.796875 0 L 5.296875 0 L -0.421875 -10.65625 Z M 3.953125 -10.65625 "/></g></g></g><g fill="#000000" fill-opacity="1"><g transform="translate(54.185272, 20.705541)"><g><path d="M 12.03125 -4.828125 L 4.296875 -4.828125 C 4.296875 -4.078125 4.535156 -3.519531 5.015625 -3.15625 C 5.503906 -2.800781 6.035156 -2.625 6.609375 -2.625 C 7.203125 -2.625 7.671875 -2.703125 8.015625 -2.859375 C 8.367188 -3.015625 8.765625 -3.328125 9.203125 -3.796875 L 11.859375 -2.46875 C 10.753906 -0.613281 8.914062 0.3125 6.34375 0.3125 C 4.726562 0.3125 3.347656 -0.238281 2.203125 -1.34375 C 1.054688 -2.445312 0.484375 -3.769531 0.484375 -5.3125 C 0.484375 -6.863281 1.054688 -8.191406 2.203125 -9.296875 C 3.347656 -10.410156 4.726562 -10.96875 6.34375 -10.96875 C 8.03125 -10.96875 9.398438 -10.476562 10.453125 -9.5 C 11.515625 -8.53125 12.046875 -7.132812 12.046875 -5.3125 C 12.046875 -5.070312 12.039062 -4.910156 12.03125 -4.828125 Z M 4.40625 -6.859375 L 8.453125 -6.859375 C 8.367188 -7.410156 8.148438 -7.832031 7.796875 -8.125 C 7.453125 -8.425781 7 -8.578125 6.4375 -8.578125 C 5.832031 -8.578125 5.347656 -8.414062 4.984375 -8.09375 C 4.628906 -7.78125 4.4375 -7.367188 4.40625 -6.859375 Z M 4.40625 -6.859375 "/></g></g></g><g fill="#000000" fill-opacity="1"><g transform="translate(65.154672, 20.705541)"><g><path d="M 1.25 0 L 1.25 -10.65625 L 4.921875 -10.65625 L 4.921875 -9.125 L 4.96875 -9.125 C 5 -9.175781 5.046875 -9.242188 5.109375 -9.328125 C 5.171875 -9.410156 5.300781 -9.554688 5.5 -9.765625 C 5.707031 -9.972656 5.929688 -10.160156 6.171875 -10.328125 C 6.410156 -10.492188 6.710938 -10.640625 7.078125 -10.765625 C 7.453125 -10.898438 7.835938 -10.96875 8.234375 -10.96875 C 8.628906 -10.96875 9.019531 -10.910156 9.40625 -10.796875 C 9.800781 -10.691406 10.085938 -10.582031 10.265625 -10.46875 L 10.5625 -10.3125 L 9.015625 -7.1875 C 8.554688 -7.570312 7.921875 -7.765625 7.109375 -7.765625 C 6.660156 -7.765625 6.273438 -7.664062 5.953125 -7.46875 C 5.640625 -7.28125 5.414062 -7.046875 5.28125 -6.765625 C 5.15625 -6.492188 5.0625 -6.257812 5 -6.0625 C 4.945312 -5.875 4.921875 -5.722656 4.921875 -5.609375 L 4.921875 0 Z M 1.25 0 "/></g></g></g><g fill="#000000" fill-opacity="1"><g transform="translate(77.730779, 20.705541)"><g><path d="M 3.953125 -10.65625 L 6.546875 -4.859375 L 9.140625 -10.65625 L 13.515625 -10.65625 L 7.796875 0 L 5.296875 0 L -0.421875 -10.65625 Z M 3.953125 -10.65625 "/></g></g></g><g fill="#000000" fill-opacity="1"><g transform="translate(89.261136, 20.705541)"><g><path d="M 1.59375 -16.59375 C 2.03125 -17.03125 2.546875 -17.25 3.140625 -17.25 C 3.734375 -17.25 4.242188 -17.03125 4.671875 -16.59375 C 5.097656 -16.164062 5.3125 -15.65625 5.3125 -15.0625 C 5.3125 -14.46875 5.097656 -13.957031 4.671875 -13.53125 C 4.242188 -13.101562 3.734375 -12.890625 3.140625 -12.890625 C 2.546875 -12.890625 2.03125 -13.101562 1.59375 -13.53125 C 1.164062 -13.957031 0.953125 -14.46875 0.953125 -15.0625 C 0.953125 -15.65625 1.164062 -16.164062 1.59375 -16.59375 Z M 1.25 -10.65625 L 1.25 0 L 4.921875 0 L 4.921875 -10.65625 Z M 1.25 -10.65625 "/></g></g></g><g fill="#000000" fill-opacity="1"><g transform="translate(93.976902, 20.705541)"><g><path d="M 1.25 0 L 1.25 -10.65625 L 4.921875 -10.65625 L 4.921875 -9.125 L 4.96875 -9.125 C 5 -9.175781 5.046875 -9.242188 5.109375 -9.328125 C 5.171875 -9.410156 5.300781 -9.554688 5.5 -9.765625 C 5.707031 -9.972656 5.929688 -10.160156 6.171875 -10.328125 C 6.410156 -10.492188 6.710938 -10.640625 7.078125 -10.765625 C 7.453125 -10.898438 7.835938 -10.96875 8.234375 -10.96875 C 8.628906 -10.96875 9.019531 -10.910156 9.40625 -10.796875 C 9.800781 -10.691406 10.085938 -10.582031 10.265625 -10.46875 L 10.5625 -10.3125 L 9.015625 -7.1875 C 8.554688 -7.570312 7.921875 -7.765625 7.109375 -7.765625 C 6.660156 -7.765625 6.273438 -7.664062 5.953125 -7.46875 C 5.640625 -7.28125 5.414062 -7.046875 5.28125 -6.765625 C 5.15625 -6.492188 5.0625 -6.257812 5 -6.0625 C 4.945312 -5.875 4.921875 -5.722656 4.921875 -5.609375 L 4.921875 0 Z M 1.25 0 "/></g></g></g><g fill="#000000" fill-opacity="1"><g transform="translate(102.764797, 20.705541)"><g><path d="M 1.96875 -1.3125 C 0.976562 -2.40625 0.484375 -3.738281 0.484375 -5.3125 C 0.484375 -6.894531 0.976562 -8.234375 1.96875 -9.328125 C 2.96875 -10.421875 4.238281 -10.96875 5.78125 -10.96875 C 7.1875 -10.96875 8.347656 -10.523438 9.265625 -9.640625 L 9.265625 -10.65625 L 12.953125 -10.65625 L 12.953125 0 L 9.3125 0 L 9.3125 -1.203125 L 9.265625 -1.203125 C 8.347656 -0.191406 7.1875 0.3125 5.78125 0.3125 C 4.238281 0.3125 2.96875 -0.226562 1.96875 -1.3125 Z M 5.09375 -7.125 C 4.625 -6.65625 4.390625 -6.050781 4.390625 -5.3125 C 4.390625 -4.582031 4.613281 -3.984375 5.0625 -3.515625 C 5.519531 -3.054688 6.125 -2.828125 6.875 -2.828125 C 7.59375 -2.828125 8.1875 -3.0625 8.65625 -3.53125 C 9.125 -4 9.359375 -4.59375 9.359375 -5.3125 C 9.359375 -6.050781 9.117188 -6.65625 8.640625 -7.125 C 8.160156 -7.59375 7.570312 -7.828125 6.875 -7.828125 C 6.164062 -7.828125 5.570312 -7.59375 5.09375 -7.125 Z M 5.09375 -7.125 "/></g></g></g><g fill="#000000" fill-opacity="1"><g transform="translate(115.396303, 20.705541)"><g><path d="M 1.25 0 L 1.25 -17.875 L 4.921875 -17.875 L 4.921875 0 Z M 1.25 0 "/></g></g></g></svg>